<?xml version="1.0" encoding="utf-8"?>
<svg version="1.0" width="557pt" height="557pt" viewBox="0 517 40 40" preserveAspectRatio="xMidYMid meet" xmlns="http://www.w3.org/2000/svg" xmlns:bx="https://boxy-svg.com">
  <defs>
    <linearGradient id="color-0" bx:pinned="true">
      <stop style="stop-color: rgb(104, 33, 122);"/>
    </linearGradient>
    <view id="view-1" viewBox="50.881 521.475 64.549 12.971">
      <title>View 1</title>
    </view>
    <view id="view-2" viewBox="40.587 537.947 10.398 3.706">
      <title>View 2</title>
    </view>
  </defs>
  <rect x="0.025" y="517" width="39.5" height="39.5" style="fill: rgb(255, 255, 255);"/>
  <g transform="matrix(0.007181, 0, 0, -0.007181, 0, 557)" fill="#000000" stroke="none">
    <path d="M0 2785 l0 -2785 2785 0 2785 0 0 2785 0 2785 -2785 0 -2785 0 0 -2785z m2730 2400 l0 -75 -340 0 -340 0 0 -320 0 -320 318 -2 317 -3 0 -70 0 -70 -317 -3 -318 -2 0 -325 0 -325 358 -2 357 -3 3 -72 3 -73 -446 0 -445 0 0 870 0 870 425 0 425 0 0 -75z m1213 56 c4 0 7 -31 5 -68 l-3 -68 -337 -3 -338 -2 0 -330 0 -330 315 0 315 0 0 -70 0 -70 -315 0 -315 0 -2 -392 -3 -393 -85 0 -85 0 -3 859 c-1 563 1 862 8 866 8 5 816 6 843 1z m-1684 -2226 c52 -9 135 -27 185 -41 176 -49 413 -184 525 -298 l44 -45 -39 -45 c-57 -65 -66 -66 -129 -8 -94 86 -241 175 -367 222 -159 59 -396 84 -571 61 -492 -66 -900 -446 -992 -925 -51 -263 -17 -569 86 -786 160 -336 449 -567 822 -658 102 -24 392 -24 494 0 206 51 382 140 529 268 31 27 60 50 63 50 4 0 29 -23 56 -51 l50 -50 -63 -60 c-115 -108 -265 -196 -444 -260 -157 -56 -255 -72 -443 -72 -263 0 -467 54 -676 176 -416 244 -662 679 -662 1172 -1 635 399 1165 994 1320 173 46 373 56 538 30z m1331 -726 l50 -11 0 -84 c0 -46 -1 -84 -2 -84 -2 0 -21 7 -43 15 -48 17 -135 19 -189 4 -53 -15 -130 -94 -167 -172 -56 -120 -61 -167 -66 -574 l-5 -373 -79 0 -79 0 2 633 3 632 65 1 c36 1 71 -1 78 -4 8 -3 12 -35 12 -113 0 -60 4 -109 8 -109 4 0 18 20 30 45 26 54 91 126 140 157 36 22 117 46 164 47 15 1 50 -4 78 -10z m893 -5 c88 -23 133 -49 199 -115 101 -101 147 -229 155 -431 l5 -128 -453 -2 -454 -3 3 -40 c14 -181 88 -320 208 -391 136 -80 362 -62 530 42 40 24 77 44 83 44 8 0 11 -24 9 -77 l-3 -77 -55 -33 c-94 -57 -197 -84 -340 -90 -206 -8 -314 28 -430 146 -73 74 -117 154 -152 278 -30 106 -32 335 -3 433 66 230 214 393 405 444 74 20 217 20 293 0z m-2228 -190 c150 -72 230 -224 228 -434 -2 -146 -37 -248 -119 -339 -151 -168 -477 -168 -627 -1 -80 89 -117 196 -117 338 1 198 83 353 229 427 75 38 114 44 236 41 97 -3 117 -6 170 -32z" style="fill: url(#color-0);"/>
    <path d="M4250 2147 c-80 -19 -130 -49 -188 -111 -53 -58 -107 -175 -114 -246 l-3 -35 358 -3 c411 -3 378 -12 358 102 -15 91 -49 160 -106 219 -70 70 -192 100 -305 74z" style="fill: url(#color-0);"/>
  </g>
</svg>