<svg width="20" height="20" viewBox="0 0 20 20" xmlns="http://www.w3.org/2000/svg">
  <rect width="20" height="20" fill="#68217a" rx="2" ry="2"/>
  <path fill="#fff" d="M4.675 6.092H3.001V4.766h1.191v-.81H3.001V2.903h1.665l.042-.809H2.07v4.808h2.64l-.035-.81zm2.273-3.189h1.889l.042-.808H6.004v4.811h.944V4.874H8.25v-.81H6.948V2.903zm8.549 8.169c0-1.076-.196-2.072-1.614-2.072h-1.647v4.997h.969v-1.545h.449L14.362 14h1.005l-.795-1.663c.566-.204.924-.668.924-1.265Zm-1.616.484h-.675V9.899h.67c.171 0 .414.017.524.126.152.151.199.604.199.934 0 .173-.001.293-.117.408-.172.172-.488.188-.601.188Zm5.06 1.603h-1.74v-1.377h1.238v-.841h-1.238V9.847h1.731l.043-.84h-2.74V14h2.742l-.036-.841zm-15.406.061c-.298 0-.883-.023-.891-1.716.008-1.693.593-1.716.891-1.716.374 0 .719.101.86.855l.912-.099c-.135-.769-.54-1.615-1.771-1.615-1.511 0-1.858 1.401-1.863 2.576.005 1.175.352 2.576 1.863 2.576 1.231 0 1.637-.846 1.771-1.615l-.912-.099c-.14.754-.485.855-.86.855Zm5.069-4.369c-1.68 0-2.9 1.089-2.9 2.651 0 1.487 1.301 2.651 2.9 2.651s2.9-1.164 2.9-2.651c0-1.563-1.22-2.651-2.9-2.651Zm0 4.449c-1.089 0-1.92-.807-1.92-1.798 0-1.059.757-1.798 1.92-1.798s1.92.739 1.92 1.798c0 .992-.831 1.798-1.92 1.798Z"/>
  <path fill="#40ccf4" d="M11.45 13c-.253 1.241-1.43 2.154-2.846 2.154S6.011 14.241 5.758 13h-.054v.502c0 1.487 1.301 2.651 2.9 2.651s2.9-1.164 2.9-2.651V13h-.054Z"/>
  <path fill="#40ccf4" d="M11.45 15c-.253 1.241-1.43 2.154-2.846 2.154S6.011 16.241 5.758 15h-.054v.502c0 1.487 1.301 2.651 2.9 2.651s2.9-1.164 2.9-2.651V15h-.054Zm-1.428-3.473C9.687 11.196 9.2 11 8.604 11s-1.082.196-1.418.527c.014.716.63 1.273 1.417 1.273s1.404-.558 1.418-1.273Z"/>
</svg>
