<svg width="40" height="40" viewBox="0 0 40 40" xmlns="http://www.w3.org/2000/svg">
  <rect width="40" height="40" fill="#68217a" rx="3" ry="3"/>
  <path fill="#fff" d="M9.351 13.185h-3.35v-2.653h2.383v-1.62H6.001V6.806h3.332l.084-1.618H4.14v9.615h5.281l-.07-1.618zm3.745-6.379h3.778l.084-1.617h-5.75v9.623h1.888v-4.065H15.7V9.128h-2.604V6.806zm17.613 16.333c0-2.072-.377-3.99-3.108-3.99H24.43v9.623h1.866v-2.975h.865l1.364 2.982h1.935l-1.531-3.202c1.09-.394 1.78-1.287 1.78-2.437Zm-3.113.932h-1.301V20.88h1.291c.329 0 .797.032 1.008.243.293.292.383 1.162.383 1.8 0 .333-.003.565-.224.787-.332.332-.94.362-1.157.362Zm9.637 3.077h-3.349v-2.652h2.383v-1.62h-2.383V20.77h3.331l.084-1.619h-5.277v9.616h5.281l-.07-1.619zm-30.266.124c-.574 0-1.7-.044-1.715-3.305.015-3.261 1.141-3.305 1.715-3.305.721 0 1.385.194 1.655 1.647l1.756-.191c-.259-1.48-1.04-3.111-3.412-3.111-2.911 0-3.579 2.697-3.588 4.96.01 2.263.678 4.96 3.588 4.96 2.371 0 3.152-1.63 3.412-3.111l-1.756-.191c-.27 1.452-.934 1.647-1.655 1.647Zm10.205-8.413c-3.329 0-5.746 2.096-5.746 5.106 0 2.864 2.578 5.106 5.746 5.106s5.746-2.242 5.746-5.106c0-3.01-2.417-5.106-5.746-5.106Zm0 8.569c-2.159 0-3.805-1.553-3.805-3.463 0-2.039 1.5-3.463 3.805-3.463s3.805 1.424 3.805 3.463c0 1.909-1.646 3.463-3.805 3.463Z"/>
  <path fill="#40ccf4" d="M22.866 26.284c-.375 2.527-2.784 4.418-5.694 4.418s-5.319-1.891-5.694-4.418h-.052v.944c0 2.864 2.578 5.106 5.746 5.106s5.746-2.242 5.746-5.106v-.944h-.052Z"/>
  <path fill="#40ccf4" d="M22.866 29.548c-.375 2.527-2.784 4.418-5.694 4.418s-5.319-1.891-5.694-4.418h-.052v.944c0 2.864 2.578 5.106 5.746 5.106s5.746-2.242 5.746-5.106v-.944h-.052Zm-2.819-6.113c-.665-.678-1.654-1.081-2.874-1.081s-2.209.403-2.874 1.081a2.923 2.923 0 0 0-.048.529c0 1.447 1.284 2.581 2.923 2.581s2.923-1.134 2.923-2.581c0-.185-.017-.361-.048-.529Z"/>
</svg>
